<?xml version="1.0" encoding="utf-8"?>
<svg viewBox="0 0 1024 621.1" xmlns="http://www.w3.org/2000/svg">
  <g style="" transform="matrix(1.439857006072998, 0, 0, 1.439857006072998, -254.7102813720703, -354.0978088378906)">
    <title>Cloud</title>
    <path fill="#FBFAFA" opacity="1.000000" stroke="none" d="M 190.273 589.769 Z M 321.104 383.544 Z M 369.532 367.947 Z M 861.246 526.008 C 860.112 533.317 860.255 540.869 858.29 547.999 C 855.56 557.905 848.545 566.589 847.255 576.782 C 844.076 601.914 816.183 618.925 788.774 632.449 C 760.726 646.288 734.108 645.983 706.209 646.185 C 687.279 646.322 492.536 646.123 488.154 646.093 C 472.218 645.985 456.197 647.69 440.345 646.051 C 425.501 644.516 415.605 643.038 400.92 645.694 C 390.992 647.49 377.203 643.456 367.197 644.745 C 352.052 646.695 336.689 647.355 321.431 646.757 C 305.573 646.136 289.396 645.535 274.159 641.099 C 260.295 637.063 253.003 637.665 239.887 631.625 C 236.952 630.273 205.251 623.094 201.897 617.901 C 199.321 613.913 196.301 610.229 193.578 606.339 C 184.122 592.829 180.675 566.505 177.088 550.409 C 176.265 546.716 178.127 514.689 182.966 498.433 C 195.058 457.816 218.875 423.92 256.561 403.307 C 258.219 402.4 263.649 399.708 266.173 398.159 C 273.739 393.514 282.195 390.452 290.495 387.301 C 300.206 383.614 319.583 381.936 329.099 382.167 C 335.917 382.333 342.679 383.445 349.461 384.167 C 353.78 384.627 358.146 386.59 362.4 385.713 C 367.662 384.628 369.267 369.001 369.455 368.354 C 370.47 364.869 391.878 322.012 392.095 321.704 C 398.252 312.977 405.427 304.976 412.836 297.284 C 413.456 296.64 432.552 277.889 443.682 273.461 C 444.298 273.216 465.871 260.728 469.707 259.186 C 507.16 244.133 544.685 242.706 584.025 250.845 C 633.807 261.145 673.675 294.593 697.512 338.305 C 701.544 345.698 704.152 353.796 706.938 361.743 C 708.622 366.548 709.956 371.491 710.9 376.494 C 711.36 378.933 708.679 383.528 711.127 383.938 C 724.167 386.124 737.579 382.57 750.787 383.181 C 767.747 383.966 792.279 394.56 804.849 401.08 C 814.015 405.835 823.886 410.507 830.518 418.422 C 848.186 439.507 849.753 443.403 864.14 466.849 C 864.863 468.028 868.449 479.598 861.246 526.008 Z" style=""/>
    <path opacity="1.000000" stroke="none" d="M 233.098 651.031 C 233.354 650.794 215.701 641.635 213.544 636.628 C 212.508 634.224 204.043 622.19 203.243 619.67 C 202.136 616.182 219.313 621.14 222.816 622.085 C 225.481 622.804 241.48 631.24 244.355 632.208 C 258.913 637.107 260.105 636.823 274.159 641.099 C 289.62 645.802 305.538 646.627 321.431 646.757 C 336.691 646.882 352.051 646.447 367.197 644.745 C 377.128 643.629 428.307 646.117 440.345 646.051 C 456.281 645.964 472.219 645.961 488.154 646.093 C 511.893 646.289 535.631 646.828 559.369 646.854 C 576.439 646.873 593.529 646.689 610.575 645.861 C 624.886 645.165 689.038 645.11 706.209 646.185 C 734.871 647.979 762.585 644.502 788.774 632.449 C 806.348 624.36 821.309 612.522 833.315 597.275 C 838.221 591.044 842.399 584.24 847.218 577.132 C 851.187 567.065 855.492 557.748 858.29 547.999 C 860.308 540.966 860.236 533.346 861.246 526.008 C 862.752 515.064 863.482 510.785 865.097 493.995 C 864.781 485.623 863.961 468.159 864.055 466.643 C 865.515 467.203 872.473 480.535 875.746 486.575 C 877.15 492.122 886.084 516.935 886.893 522.567 C 887.777 528.732 888.471 535.12 887.834 541.263 C 886.698 552.203 887.905 563.417 883.591 574.053 C 880.26 582.266 878.087 590.943 874.971 599.253 C 872.971 604.586 863.869 616.148 862.935 617.183 C 857.259 623.47 852.238 630.458 845.992 636.097 C 834.092 646.838 820.536 655.251 805.758 661.633 C 784.525 670.801 762.47 676.565 739.282 676.875 C 714.122 677.211 688.953 677.197 663.792 676.951 C 538.884 675.731 413.949 679.612 289.03 674.971 C 289 675 288.033 675.343 287.785 675.056 C 282.678 673.631 267.413 669.564 266.528 669.22 C 265.051 668.463 263.963 667.436 262.797 666.826 C 252.836 661.608 242.88 656.379 233.098 651.031 Z" style="fill: rgb(176, 223, 246);"/>
    <path opacity="1.000000" stroke="none" d="M 662.155 345.176 C 657.194 336.555 652.527 328.069 647.72 319.663 C 647.109 318.595 641.475 313.327 640.063 311.614 C 638.67 310.496 628.055 301.56 626.225 300.657 C 620.618 296.492 614.943 292.414 609.437 288.119 C 607.173 286.353 603.188 282.927 603.549 282.295 C 605.82 278.327 609.385 281.083 612.222 282.003 C 627.904 287.088 641.503 295.71 653.483 306.975 C 656.012 309.353 658.666 311.6 661.644 314.39 C 662.941 315.353 670.436 326.344 673.362 330.531 C 677.817 336.906 682.079 343.457 687.005 349.455 C 694.691 358.813 710.803 381.138 710.958 383.598 C 695.517 387.637 682.106 395.497 669.633 406.212 C 670.983 387.662 670.376 369.783 664.327 351.796 C 663.659 349.784 663.261 348.4 662.864 347.016 C 662.712 346.456 662.559 345.897 662.155 345.176 Z" style="fill: rgb(176, 223, 246);"/>
  </g>
  <g style="" transform="matrix(1.439857006072998, 0, 0, 1.439857006072998, -254.7102813720703, -354.0978088378906)">
    <title>Maya</title>
    <g>
      <title>Highlight</title>
      <path opacity="1.000000" stroke="none" style="fill: rgb(255, 128, 171);" d="M 307.793 563.761 C 306.972 560.998 306.291 558.511 306.083 555.702 C 305.545 548.444 305.504 541.149 305.26 533.457 C 305.478 529.005 305.702 524.966 305.938 520.057 C 305.901 517.784 305.851 516.38 305.802 514.977 C 305.831 511.954 305.86 508.931 305.905 504.996 C 305.874 499.055 305.827 494.024 305.78 488.994 C 305.818 483.64 305.856 478.286 305.913 472.008 C 305.995 466.727 306.058 462.369 306.121 458.012 C 311.558 443.521 329.367 442.658 337.266 456.193 C 344.712 468.952 353.236 481.082 361.31 493.473 C 361.646 493.988 362.227 494.344 363.409 495.433 C 367.847 488.511 372.101 481.88 376.351 475.246 C 380.648 468.539 384.677 461.642 389.3 455.168 C 395.738 446.152 402.142 444.604 412.752 449.249 C 415.158 451.484 418.892 455.637 418.954 456.175 C 419.27 457.865 419.525 459.017 419.523 460.472 C 418.881 474.855 418.216 488.934 418.184 503.015 C 418.144 520.432 418.89 537.851 418.787 555.266 C 418.731 564.719 410.706 570.428 401.3 568.69 C 400.186 568.484 398.953 568.922 397.775 569.062 C 393.597 565.508 391.796 561.028 391.853 555.514 C 392.006 540.77 391.975 526.024 391.916 511.279 C 391.909 509.374 391.305 507.471 390.464 505.067 C 388.347 505.658 386.348 506.443 385.22 507.902 C 382.393 511.56 380.009 515.556 377.36 519.355 C 370.886 528.64 365.871 530.557 354.937 528.033 C 354.937 528.033 352.43 525.759 351.335 524.663 C 347.72 519.811 343.912 515.249 340.198 510.474 C 338.933 508.848 335.062 504.021 334.988 503.325 C 334.158 503.693 332.81 503.878 332.603 504.464 C 332.127 505.819 332.056 507.371 332.081 508.839 C 332.331 523.577 332.754 538.313 332.866 553.052 C 332.914 559.464 331.337 565.804 324.525 567.961 C 320.705 569.171 316.155 568.077 311.934 568.021 C 311.934 568.021 310.239 566.83 309.266 565.781 C 309.266 565.781 308.284 564.212 307.793 563.761 Z"/>
      <path opacity="1.000000" stroke="none" style="fill: rgb(255, 128, 171);" d="M 687.818 456.894 C 691.809 449.756 698.235 446.146 706.069 446.245 C 714.543 446.352 719.958 451.618 723.131 459.264 C 724.717 463.083 726.252 466.924 727.9 470.716 C 732.372 481.009 736.893 491.28 741.706 502.16 C 744.76 509.139 747.53 515.507 750.239 521.9 C 754.487 531.924 758.694 541.966 762.649 552.277 C 761.775 559.551 760.413 566.442 752.318 568.134 C 748.759 568.878 741.749 567.565 741.142 567.528 C 736.893 564.452 734.818 559.876 733.036 556.604 C 732.636 555.17 732.272 554.08 731.896 552.641 C 731.582 550.951 731.279 549.609 730.834 547.896 C 728.693 546.699 726.706 545.194 724.693 545.157 C 712.256 544.932 699.798 545.409 687.38 544.88 C 680.901 544.605 677.818 547.326 675.502 552.87 C 668.776 568.97 668.442 569.043 651.964 568.009 C 651.993 568.004 648.875 566.668 647.082 563.552 C 645.191 556.838 646.855 550.989 649.32 545.31 C 662.12 515.824 674.979 486.364 687.818 456.894 M 703.719 487.566 C 702.579 488.433 700.943 489.055 700.377 490.204 C 694.98 501.158 689.707 512.174 684.589 523.26 C 684.105 524.307 684.615 526.951 685.197 527.131 C 686.725 527.604 688.785 527.585 690.171 526.868 C 691.134 526.37 689.903 524.282 691.316 522.837 C 698.427 522.759 706.966 522.719 714.076 522.74 C 718.456 522.753 719.817 521.15 718.102 516.957 C 714.644 508.5 711 500.116 707.269 491.775 C 706.638 490.363 705.19 489.317 703.719 487.566 Z"/>
      <path opacity="1.000000" stroke="none" style="fill: rgb(255, 128, 171);" d="M 577.107 454.603 C 581.986 463.267 586.68 471.357 591.608 479.992 C 594.121 484.394 596.788 488.708 600.11 494.278 C 603.525 488.385 606.264 483.565 609.093 478.798 C 614.261 470.09 618.881 460.973 624.835 452.836 C 632.167 442.817 643.692 444.418 649.49 456.154 C 647.158 461.347 645.369 466.143 642.788 470.466 C 635.139 483.273 627.244 495.934 619.314 508.57 C 614.447 516.325 611.068 524.281 611.866 533.839 C 612.5 541.446 612.485 549.195 611.764 556.787 C 611.443 560.175 609.29 563.905 606.885 566.459 C 603.182 570.393 597.992 570.179 592.629 568.91 C 586.953 563.809 585.727 557.475 585.99 550.426 C 586.276 542.786 586.099 535.125 585.988 527.475 C 585.962 525.7 585.824 523.685 584.988 522.203 C 580.107 513.551 575.062 504.99 569.959 496.467 C 563.823 486.218 557.297 476.193 551.468 465.775 C 547.391 458.488 550.815 450.335 558.58 447.422 C 563.569 445.55 569.332 447.52 572.989 449.378 C 575.348 450.972 575.782 453.184 577.107 454.603 Z"/>
      <path opacity="1.000000" stroke="none" style="fill: rgb(255, 128, 171);" d="M 474.198 456.336 C 478.189 449.198 484.615 445.588 492.449 445.687 C 500.923 445.794 506.338 451.06 509.511 458.706 C 511.097 462.525 512.632 466.366 514.28 470.158 C 518.752 480.451 523.273 490.722 528.086 501.602 C 531.14 508.581 533.91 514.949 536.619 521.342 C 540.867 531.366 545.074 541.408 549.029 551.719 C 548.155 558.993 546.793 565.884 538.698 567.576 C 535.139 568.32 528.129 567.007 527.522 566.97 C 523.273 563.894 521.198 559.318 519.416 556.046 C 519.016 554.612 518.652 553.522 518.276 552.083 C 517.962 550.393 517.659 549.051 517.214 547.338 C 515.073 546.141 513.086 544.636 511.073 544.599 C 498.636 544.374 486.178 544.851 473.76 544.322 C 467.281 544.047 464.198 546.768 461.882 552.312 C 455.156 568.412 454.822 568.485 438.344 567.451 C 438.373 567.446 435.255 566.11 433.462 562.994 C 431.571 556.28 433.235 550.431 435.7 544.752 C 448.5 515.266 461.359 485.806 474.198 456.336 M 490.099 487.008 C 488.959 487.875 487.323 488.497 486.757 489.646 C 481.36 500.6 476.087 511.616 470.969 522.702 C 470.485 523.749 470.995 526.393 471.577 526.573 C 473.105 527.046 475.165 527.027 476.551 526.31 C 477.514 525.812 476.283 523.724 477.696 522.279 C 484.807 522.201 493.346 522.161 500.456 522.182 C 504.836 522.195 506.197 520.592 504.482 516.399 C 501.024 507.942 497.38 499.558 493.649 491.217 C 493.018 489.805 491.57 488.759 490.099 487.008 Z"/>
    </g>
    <g style="">
      <path opacity="1.000000" stroke="none" d="M 517.214 547.338 C 509.011 547.648 500.666 547.585 491.416 547.511 C 488.132 547.541 485.754 547.582 483.376 547.624 C 479.682 547.591 475.989 547.558 471.839 547.594 C 470.935 547.625 469.867 547.588 468.522 548.057 C 467.047 549.016 467.087 549.47 466.286 550.41 C 465.994 550.895 465.703 551.38 465.162 552.329 C 464.761 553.335 464.28 554.771 464.027 555.216 C 462.604 558.24 462.394 558.51 460.015 563.152 C 458.611 565.76 456.92 567.968 455.4 569.393 C 449.688 572.769 446.204 571.031 440.86 569.096 C 440.86 569.096 438.606 567.939 438.316 567.456 C 454.822 568.485 455.156 568.412 461.882 552.312 C 464.198 546.768 467.281 544.047 473.76 544.322 C 486.178 544.851 498.636 544.374 511.073 544.599 C 513.086 544.636 515.073 546.141 517.214 547.338 Z" style="fill: rgb(183, 49, 94);"/>
      <path opacity="1.000000" stroke="none" d="M 544.728 568.822 C 536.596 573.256 532.12 572.525 527.27 566.834 C 531.128 566.901 535.139 568.32 538.698 567.576 C 546.793 565.884 548.155 558.993 549.029 551.719 C 549.654 552.547 549.603 553.408 549.885 555.188 C 549.979 558.433 550.269 560.098 549.192 563.076 C 548.779 564.185 546.967 566.662 544.728 568.822 Z" style="fill: rgb(183, 49, 94);"/>
      <path opacity="1.000000" stroke="none" d="M 490.127 487.047 C 486.322 496.744 482.406 506.369 478.553 515.86 C 477.799 517.718 477.955 519.946 477.971 522.26 C 477.711 523.834 477.514 525.812 476.551 526.31 C 475.165 527.027 473.105 527.046 471.577 526.573 C 470.995 526.393 470.485 523.749 470.969 522.702 C 476.087 511.616 481.36 500.6 486.757 489.646 C 487.323 488.497 488.787 487.645 490.127 487.047 Z" style="fill: rgb(183, 49, 94);"/>
      <path opacity="1.000000" stroke="none" d="M 645.969 472.413 C 637.3 486.582 620.435 513.577 620.184 513.797 C 615.494 518.508 613.874 524.502 614.074 530.832 C 614.335 539.105 614.172 547.392 614.152 555.673 C 614.125 566.498 611.751 569.533 601.212 572.344 C 597.75 572.475 597.664 572.074 595.225 571.184 C 594.668 570.672 593.128 569.701 592.728 568.943 C 597.677 569.864 603.182 570.393 606.885 566.459 C 609.29 563.905 611.443 560.175 611.764 556.787 C 612.485 549.195 612.5 541.446 611.866 533.839 C 611.068 524.281 614.447 516.325 619.314 508.57 C 627.244 495.934 635.139 483.273 642.788 470.466 C 645.369 466.143 647.068 460.942 649.426 456.094 C 652.922 462.013 649.151 467.067 645.969 472.413 Z" style="fill: rgb(183, 49, 94);"/>
      <path opacity="1.000000" stroke="none" d="M 311.836 567.994 C 315.917 567.72 320.705 569.171 324.525 567.961 C 331.337 565.804 332.914 559.464 332.866 553.052 C 332.754 538.313 332.331 523.577 332.081 508.839 C 332.056 507.371 332.127 505.819 332.603 504.464 C 332.81 503.878 334.158 503.693 334.988 503.325 C 335.062 504.021 335.062 539.926 334.978 556.851 C 334.949 562.69 332.908 567.688 327.487 570.464 C 322.143 573.2 316.681 572.226 311.836 567.994 Z" style="fill: rgb(183, 49, 94);"/>
      <path opacity="1.000000" stroke="none" d="M 419.523 460.472 C 419.912 481.324 420.067 502.48 420.167 523.635 C 420.22 534.798 420.335 545.966 420.076 557.123 C 420.006 560.149 419.255 563.176 417.376 566.493 C 411.473 572.742 405.185 573.142 397.816 569.083 C 398.769 568.633 400.186 568.484 401.3 568.69 C 410.706 570.428 418.731 564.719 418.787 555.266 C 418.89 537.851 418.144 520.432 418.184 503.015 C 418.216 488.934 418.881 474.855 419.523 460.472 Z" style="fill: rgb(183, 49, 94);"/>
      <path opacity="1.000000" stroke="none" d="M 354.927 528.011 C 365.828 530.174 370.886 528.64 377.36 519.355 C 380.009 515.556 382.393 511.56 385.22 507.902 C 386.348 506.443 388.083 505.636 390.472 505.065 C 386.327 511.77 381.741 518.032 377.285 524.388 C 371.424 532.746 362.897 533.964 354.927 528.011 Z" style="fill: rgb(183, 49, 94);"/>
      <path opacity="1.000000" stroke="none" d="M 730.834 547.896 C 722.631 548.206 714.286 548.143 705.036 548.069 C 701.752 548.099 699.374 548.14 696.996 548.182 C 693.302 548.149 689.609 548.116 685.459 548.152 C 684.555 548.183 683.487 548.146 682.142 548.615 C 680.667 549.574 680.707 550.028 679.906 550.968 C 679.614 551.453 679.323 551.938 678.782 552.887 C 678.381 553.893 677.9 555.329 677.647 555.774 C 676.224 558.798 676.014 559.068 673.635 563.71 C 672.231 566.318 670.54 568.526 669.02 569.951 C 663.308 573.327 659.824 571.589 654.48 569.654 C 654.48 569.654 652.226 568.497 651.936 568.014 C 668.442 569.043 668.776 568.97 675.502 552.87 C 677.818 547.326 680.901 544.605 687.38 544.88 C 699.798 545.409 712.256 544.932 724.693 545.157 C 726.706 545.194 728.693 546.699 730.834 547.896 Z" style="fill: rgb(183, 49, 94);"/>
      <path opacity="1.000000" stroke="none" d="M 758.348 569.38 C 750.216 573.814 745.74 573.083 740.89 567.392 C 744.748 567.459 748.759 568.878 752.318 568.134 C 760.413 566.442 761.775 559.551 762.649 552.277 C 763.274 553.105 763.223 553.966 763.505 555.746 C 763.599 558.991 763.889 560.656 762.812 563.634 C 762.399 564.743 760.587 567.22 758.348 569.38 Z" style="fill: rgb(183, 49, 94);"/>
      <path opacity="1.000000" stroke="none" d="M 703.747 487.605 C 699.942 497.302 696.026 506.927 692.173 516.418 C 691.419 518.276 691.575 520.504 691.591 522.818 C 691.331 524.392 691.134 526.37 690.171 526.868 C 688.785 527.585 686.725 527.604 685.197 527.131 C 684.615 526.951 684.105 524.307 684.589 523.26 C 689.707 512.174 694.98 501.158 700.377 490.204 C 700.943 489.055 702.407 488.203 703.747 487.605 Z" style="fill: rgb(183, 49, 94);"/>
    </g>
  </g>
</svg>