<?xml version="1.0" encoding="utf-8"?>
<svg viewBox="0 0 1024 1024" xmlns="http://www.w3.org/2000/svg">
  <g style="">
    <title>Cloud</title>
    <path fill="#FBFAFA" opacity="1.000000" stroke="none" d="M 190.273 589.769 Z M 321.104 383.544 Z M 369.532 367.947 Z M 861.246 526.008 C 860.112 533.317 860.255 540.869 858.29 547.999 C 855.56 557.905 848.545 566.589 847.255 576.782 C 844.076 601.914 816.183 618.925 788.774 632.449 C 760.726 646.288 734.108 645.983 706.209 646.185 C 687.279 646.322 492.536 646.123 488.154 646.093 C 472.218 645.985 456.197 647.69 440.345 646.051 C 425.501 644.516 415.605 643.038 400.92 645.694 C 390.992 647.49 377.203 643.456 367.197 644.745 C 352.052 646.695 336.689 647.355 321.431 646.757 C 305.573 646.136 289.396 645.535 274.159 641.099 C 260.295 637.063 253.003 637.665 239.887 631.625 C 236.952 630.273 205.251 623.094 201.897 617.901 C 199.321 613.913 196.301 610.229 193.578 606.339 C 184.122 592.829 180.675 566.505 177.088 550.409 C 176.265 546.716 178.127 514.689 182.966 498.433 C 195.058 457.816 218.875 423.92 256.561 403.307 C 258.219 402.4 263.649 399.708 266.173 398.159 C 273.739 393.514 282.195 390.452 290.495 387.301 C 300.206 383.614 319.583 381.936 329.099 382.167 C 335.917 382.333 342.679 383.445 349.461 384.167 C 353.78 384.627 358.146 386.59 362.4 385.713 C 367.662 384.628 369.267 369.001 369.455 368.354 C 370.47 364.869 391.878 322.012 392.095 321.704 C 398.252 312.977 405.427 304.976 412.836 297.284 C 413.456 296.64 432.552 277.889 443.682 273.461 C 444.298 273.216 465.871 260.728 469.707 259.186 C 507.16 244.133 544.685 242.706 584.025 250.845 C 633.807 261.145 673.675 294.593 697.512 338.305 C 701.544 345.698 704.152 353.796 706.938 361.743 C 708.622 366.548 709.956 371.491 710.9 376.494 C 711.36 378.933 708.679 383.528 711.127 383.938 C 724.167 386.124 737.579 382.57 750.787 383.181 C 767.747 383.966 792.279 394.56 804.849 401.08 C 814.015 405.835 823.886 410.507 830.518 418.422 C 848.186 439.507 849.753 443.403 864.14 466.849 C 864.863 468.028 868.449 479.598 861.246 526.008 Z" style=""/>
    <path fill="#B0CCDA" opacity="1.000000" stroke="none" d="M 233.098 651.031 C 233.354 650.794 215.701 641.635 213.544 636.628 C 212.508 634.224 204.043 622.19 203.243 619.67 C 202.136 616.182 219.313 621.14 222.816 622.085 C 225.481 622.804 241.48 631.24 244.355 632.208 C 258.913 637.107 260.105 636.823 274.159 641.099 C 289.62 645.802 305.538 646.627 321.431 646.757 C 336.691 646.882 352.051 646.447 367.197 644.745 C 377.128 643.629 428.307 646.117 440.345 646.051 C 456.281 645.964 472.219 645.961 488.154 646.093 C 511.893 646.289 535.631 646.828 559.369 646.854 C 576.439 646.873 593.529 646.689 610.575 645.861 C 624.886 645.165 689.038 645.11 706.209 646.185 C 734.871 647.979 762.585 644.502 788.774 632.449 C 806.348 624.36 821.309 612.522 833.315 597.275 C 838.221 591.044 842.399 584.24 847.218 577.132 C 851.187 567.065 855.492 557.748 858.29 547.999 C 860.308 540.966 860.236 533.346 861.246 526.008 C 862.752 515.064 863.482 510.785 865.097 493.995 C 864.781 485.623 863.961 468.159 864.055 466.643 C 865.515 467.203 872.473 480.535 875.746 486.575 C 877.15 492.122 886.084 516.935 886.893 522.567 C 887.777 528.732 888.471 535.12 887.834 541.263 C 886.698 552.203 887.905 563.417 883.591 574.053 C 880.26 582.266 878.087 590.943 874.971 599.253 C 872.971 604.586 863.869 616.148 862.935 617.183 C 857.259 623.47 852.238 630.458 845.992 636.097 C 834.092 646.838 820.536 655.251 805.758 661.633 C 784.525 670.801 762.47 676.565 739.282 676.875 C 714.122 677.211 688.953 677.197 663.792 676.951 C 538.884 675.731 413.949 679.612 289.03 674.971 C 289 675 288.033 675.343 287.785 675.056 C 282.678 673.631 267.413 669.564 266.528 669.22 C 265.051 668.463 263.963 667.436 262.797 666.826 C 252.836 661.608 242.88 656.379 233.098 651.031 Z" style=""/>
    <path fill="#B3CFDD" opacity="1.000000" stroke="none" d="M 662.155 345.176 C 657.194 336.555 652.527 328.069 647.72 319.663 C 647.109 318.595 641.475 313.327 640.063 311.614 C 638.67 310.496 628.055 301.56 626.225 300.657 C 620.618 296.492 614.943 292.414 609.437 288.119 C 607.173 286.353 603.188 282.927 603.549 282.295 C 605.82 278.327 609.385 281.083 612.222 282.003 C 627.904 287.088 641.503 295.71 653.483 306.975 C 656.012 309.353 658.666 311.6 661.644 314.39 C 662.941 315.353 670.436 326.344 673.362 330.531 C 677.817 336.906 682.079 343.457 687.005 349.455 C 694.691 358.813 710.803 381.138 710.958 383.598 C 695.517 387.637 682.106 395.497 669.633 406.212 C 670.983 387.662 670.376 369.783 664.327 351.796 C 663.659 349.784 663.261 348.4 662.864 347.016 C 662.712 346.456 662.559 345.897 662.155 345.176 Z" style=""/>
    <path d="M 474.859 701.511 C 433.406 701.507 392.631 701.533 351.89 701.56 C 351.89 701.56 351.358 701.498 350.747 701.178 C 342.783 700.996 335.488 701.165 328.06 701.33 L 328.034 701.33 L 328.007 701.328 C 320.785 700.723 313.551 700.116 305.872 699.116 L 305.94 699.239 L 304.824 698.959 C 295.906 696.723 286.639 694.779 277.962 691.328 C 270.155 688.212 263.143 683.256 255.661 679.52 C 244.968 674.165 236.551 665.953 228.562 657.563 C 222.586 651.28 217.865 643.822 212.658 636.564 L 211.348 634.738 L 213.308 635.837 C 215.989 637.339 218.68 639.162 221.264 641.092 C 225.065 643.932 228.707 646.782 232.767 649.589 C 232.889 649.588 232.972 649.536 233.15 649.619 C 233.249 649.665 233.401 649.835 233.435 649.943 C 233.46 650.023 233.462 650.15 233.454 650.205 C 233.444 650.278 233.426 650.336 233.407 650.398 C 233.359 650.768 233.376 650.727 233.383 650.831 C 243.265 656.016 253.068 661.165 263.029 666.383 C 264.183 666.987 265.394 667.546 267.074 668.573 C 268.073 669.154 268.592 669.295 269.171 669.462 L 269.433 669.537 L 269.499 669.76 C 269.499 669.76 269.51 669.797 269.528 669.901 C 270.445 670.185 271.197 670.28 272.014 670.348 L 271.011 669.743 L 274.096 670.465 C 278.957 671.603 283.834 672.746 288.671 674.228 L 289.23 674.4 L 289.208 674.446 C 414.037 679.11 538.922 675.232 663.797 676.451 C 688.956 676.697 714.119 676.711 739.275 676.375 C 762.403 676.073 784.363 670.33 805.56 661.174 C 820.305 654.809 833.793 646.44 845.657 635.726 C 851.867 630.127 856.87 623.157 862.564 616.848 C 863.593 615.747 865.139 615.123 866.63 614.491 L 867.909 613.95 L 867.269 615.183 C 857.706 633.576 845.509 650.211 830.085 664.047 C 819.18 673.824 807.23 682.699 793.208 687.843 C 781.753 692.034 770.155 696.017 758.369 699.159 C 751.765 700.909 744.637 700.745 737.087 701.117 C 729.575 700.989 722.854 701.178 716.104 701.367 C 715.913 701.416 715.663 701.516 714.856 701.505 C 695.731 701.508 677.299 701.534 658.89 701.561 C 658.89 701.561 658.363 701.508 657.754 701.187 C 649.124 701.005 641.15 701.175 633.049 701.342 C 627.993 701.394 622.921 701.446 617.068 701.16 L 617.019 701.158 L 616.973 701.147 C 616.881 701.124 616.792 701.102 616.705 701.081 L 616.632 701.082 C 587.969 701.391 558.986 701.374 530.009 701.541 C 521.601 701.588 513.171 702.437 504.716 702.427 C 495.447 702.415 486.183 701.832 476.472 701.444 L 475.958 701.423 C 475.764 701.47 475.441 701.525 474.859 701.511 Z M 504.718 701.427 C 513.121 701.439 521.549 700.59 530.003 700.541 C 558.414 700.377 586.824 700.39 614.93 700.1 L 615.001 699.692 C 615.607 699.796 616.292 699.95 617.165 700.164 C 622.968 700.446 627.98 700.394 633.036 700.342 C 641.136 700.175 649.246 700.008 657.897 700.19 L 658.055 700.193 L 658.158 700.27 C 658.574 700.58 658.936 700.563 658.936 700.563 C 677.345 700.536 695.731 700.508 714.856 700.505 C 715.481 700.544 715.869 700.397 715.869 700.397 L 715.933 700.372 L 716.02 700.369 C 722.789 700.179 729.553 699.989 737.088 700.117 C 744.668 699.746 751.649 699.927 758.111 698.193 C 769.863 695.061 781.419 691.092 792.864 686.903 C 806.76 681.829 818.548 673.05 829.417 663.303 C 844.771 649.543 856.314 633.79 865.735 615.955 C 864.753 616.384 864.145 616.549 863.306 617.518 C 857.648 623.783 852.609 630.789 846.327 636.468 C 834.391 647.236 820.767 655.693 805.956 662.092 C 784.687 671.272 762.537 677.057 739.289 677.375 C 714.125 677.711 688.95 677.697 663.787 677.451 C 538.889 676.231 414.167 680.105 289.371 675.453 C 289.174 675.874 289.03 676.216 288.712 676.732 C 288.561 676.848 288.331 676.98 288.244 676.977 C 288.191 676.976 288.116 676.963 288.073 676.953 C 288.001 676.935 287.908 676.903 287.827 676.874 C 287.669 676.816 287.5 676.746 287.388 676.711 L 286.7 676.492 L 287.15 675.924 C 287.464 675.528 287.477 675.699 287.802 675.009 C 283.332 673.655 280.614 673.031 276.706 672.106 C 279.102 673.717 280.524 674.899 284.432 677.257 C 280.524 674.899 277.066 673.397 273.637 671.435 C 273.446 671.431 273.187 671.44 273.187 671.44 L 273.159 671.441 L 273.129 671.438 C 271.776 671.324 270.37 671.201 268.933 670.769 L 268.601 670.669 L 268.581 670.339 C 268.567 670.098 268.581 670.333 268.581 670.33 C 268.076 670.175 267.678 670.064 266.569 669.436 C 264.938 668.435 263.743 667.885 262.565 667.269 C 252.604 662.051 242.648 656.822 232.69 651.597 L 232.468 651.48 L 232.428 651.233 C 232.404 651.08 232.379 650.886 232.396 650.548 L 232.336 650.507 C 228.198 647.653 224.457 644.726 220.666 641.894 C 218.1 639.976 217.471 639.37 214.826 637.89 C 219.519 644.547 223.37 650.668 229.286 656.873 C 237.263 665.251 245.54 673.361 256.107 678.626 C 263.655 682.4 270.629 687.34 278.332 690.398 C 286.927 693.825 294.992 695.466 303.93 697.706 C 301.346 693.6 297.855 692.502 293.474 691.814 L 293.63 690.826 C 298.121 691.537 302.525 692.867 305.678 698.082 C 313.454 699.105 320.675 699.71 328.064 700.33 C 335.484 700.165 342.904 699.999 350.89 700.181 L 351.043 700.185 L 351.146 700.259 C 351.577 700.567 351.826 700.555 351.925 700.561 C 392.665 700.534 433.406 700.507 474.859 700.511 C 475.479 700.556 475.866 700.415 475.866 700.415 L 475.888 700.406 L 475.926 700.398 C 477.114 700.156 478.362 699.712 479.645 699.583 L 479.74 700.579 C 478.591 700.679 479.731 700.579 479.727 700.58 C 488.283 700.956 495.479 701.415 504.718 701.427 Z M 320.995 688.107 C 320.492 688.317 319.715 688.232 319.14 688.523 C 319.667 688.256 320.024 687.436 320.606 687.186 Z M 287.797 690.062 C 289.15 690.265 290.555 690.41 291.977 690.593 L 291.849 691.585 C 290.443 691.405 289.026 691.258 287.648 691.05 Z M 308.097 684.387 C 307.767 685.09 307.585 686.027 307.672 686.085 L 306.732 685.463 C 306.75 684.988 306.788 684.475 306.795 684.133 L 306.807 683.592 L 307.346 683.648 C 307.46 683.659 307.577 683.67 307.694 683.683 L 308.394 683.756 Z M 308.833 686.794 C 310.523 687.264 312.345 687.234 314.046 687.633 L 313.818 688.607 C 312.101 688.205 310.527 687.266 308.833 686.794 Z" style="fill: none;"/>
  </g>
  <g style="">
    <title>Maya</title>
    <g>
      <title>Highlight</title>
      <path fill="#FBA9A4" opacity="1.000000" stroke="none" style="" d="M 307.793 563.761 C 306.972 560.998 306.291 558.511 306.083 555.702 C 305.545 548.444 305.504 541.149 305.26 533.457 C 305.478 529.005 305.702 524.966 305.938 520.057 C 305.901 517.784 305.851 516.38 305.802 514.977 C 305.831 511.954 305.86 508.931 305.905 504.996 C 305.874 499.055 305.827 494.024 305.78 488.994 C 305.818 483.64 305.856 478.286 305.913 472.008 C 305.995 466.727 306.058 462.369 306.121 458.012 C 311.558 443.521 329.367 442.658 337.266 456.193 C 344.712 468.952 353.236 481.082 361.31 493.473 C 361.646 493.988 362.227 494.344 363.409 495.433 C 367.847 488.511 372.101 481.88 376.351 475.246 C 380.648 468.539 384.677 461.642 389.3 455.168 C 395.738 446.152 402.142 444.604 412.752 449.249 C 415.158 451.484 418.892 455.637 418.954 456.175 C 419.27 457.865 419.525 459.017 419.523 460.472 C 418.881 474.855 418.216 488.934 418.184 503.015 C 418.144 520.432 418.89 537.851 418.787 555.266 C 418.731 564.719 410.706 570.428 401.3 568.69 C 400.186 568.484 398.953 568.922 397.775 569.062 C 393.597 565.508 391.796 561.028 391.853 555.514 C 392.006 540.77 391.975 526.024 391.916 511.279 C 391.909 509.374 391.305 507.471 390.464 505.067 C 388.347 505.658 386.348 506.443 385.22 507.902 C 382.393 511.56 380.009 515.556 377.36 519.355 C 370.886 528.64 365.871 530.557 354.937 528.033 C 354.937 528.033 352.43 525.759 351.335 524.663 C 347.72 519.811 343.912 515.249 340.198 510.474 C 338.933 508.848 335.062 504.021 334.988 503.325 C 334.158 503.693 332.81 503.878 332.603 504.464 C 332.127 505.819 332.056 507.371 332.081 508.839 C 332.331 523.577 332.754 538.313 332.866 553.052 C 332.914 559.464 331.337 565.804 324.525 567.961 C 320.705 569.171 316.155 568.077 311.934 568.021 C 311.934 568.021 310.239 566.83 309.266 565.781 C 309.266 565.781 308.284 564.212 307.793 563.761 Z"/>
      <path fill="#FBA9A4" opacity="1.000000" stroke="none" style="" d="M 687.818 456.894 C 691.809 449.756 698.235 446.146 706.069 446.245 C 714.543 446.352 719.958 451.618 723.131 459.264 C 724.717 463.083 726.252 466.924 727.9 470.716 C 732.372 481.009 736.893 491.28 741.706 502.16 C 744.76 509.139 747.53 515.507 750.239 521.9 C 754.487 531.924 758.694 541.966 762.649 552.277 C 761.775 559.551 760.413 566.442 752.318 568.134 C 748.759 568.878 741.749 567.565 741.142 567.528 C 736.893 564.452 734.818 559.876 733.036 556.604 C 732.636 555.17 732.272 554.08 731.896 552.641 C 731.582 550.951 731.279 549.609 730.834 547.896 C 728.693 546.699 726.706 545.194 724.693 545.157 C 712.256 544.932 699.798 545.409 687.38 544.88 C 680.901 544.605 677.818 547.326 675.502 552.87 C 668.776 568.97 668.442 569.043 651.964 568.009 C 651.993 568.004 648.875 566.668 647.082 563.552 C 645.191 556.838 646.855 550.989 649.32 545.31 C 662.12 515.824 674.979 486.364 687.818 456.894 M 703.719 487.566 C 702.579 488.433 700.943 489.055 700.377 490.204 C 694.98 501.158 689.707 512.174 684.589 523.26 C 684.105 524.307 684.615 526.951 685.197 527.131 C 686.725 527.604 688.785 527.585 690.171 526.868 C 691.134 526.37 689.903 524.282 691.316 522.837 C 698.427 522.759 706.966 522.719 714.076 522.74 C 718.456 522.753 719.817 521.15 718.102 516.957 C 714.644 508.5 711 500.116 707.269 491.775 C 706.638 490.363 705.19 489.317 703.719 487.566 Z"/>
      <path fill="#FBA9A4" opacity="1.000000" stroke="none" style="" d="M 577.107 454.603 C 581.986 463.267 586.68 471.357 591.608 479.992 C 594.121 484.394 596.788 488.708 600.11 494.278 C 603.525 488.385 606.264 483.565 609.093 478.798 C 614.261 470.09 618.881 460.973 624.835 452.836 C 632.167 442.817 643.692 444.418 649.49 456.154 C 647.158 461.347 645.369 466.143 642.788 470.466 C 635.139 483.273 627.244 495.934 619.314 508.57 C 614.447 516.325 611.068 524.281 611.866 533.839 C 612.5 541.446 612.485 549.195 611.764 556.787 C 611.443 560.175 609.29 563.905 606.885 566.459 C 603.182 570.393 597.992 570.179 592.629 568.91 C 586.953 563.809 585.727 557.475 585.99 550.426 C 586.276 542.786 586.099 535.125 585.988 527.475 C 585.962 525.7 585.824 523.685 584.988 522.203 C 580.107 513.551 575.062 504.99 569.959 496.467 C 563.823 486.218 557.297 476.193 551.468 465.775 C 547.391 458.488 550.815 450.335 558.58 447.422 C 563.569 445.55 569.332 447.52 572.989 449.378 C 575.348 450.972 575.782 453.184 577.107 454.603 Z"/>
      <path fill="#FBA9A4" opacity="1.000000" stroke="none" style="" d="M 474.198 456.336 C 478.189 449.198 484.615 445.588 492.449 445.687 C 500.923 445.794 506.338 451.06 509.511 458.706 C 511.097 462.525 512.632 466.366 514.28 470.158 C 518.752 480.451 523.273 490.722 528.086 501.602 C 531.14 508.581 533.91 514.949 536.619 521.342 C 540.867 531.366 545.074 541.408 549.029 551.719 C 548.155 558.993 546.793 565.884 538.698 567.576 C 535.139 568.32 528.129 567.007 527.522 566.97 C 523.273 563.894 521.198 559.318 519.416 556.046 C 519.016 554.612 518.652 553.522 518.276 552.083 C 517.962 550.393 517.659 549.051 517.214 547.338 C 515.073 546.141 513.086 544.636 511.073 544.599 C 498.636 544.374 486.178 544.851 473.76 544.322 C 467.281 544.047 464.198 546.768 461.882 552.312 C 455.156 568.412 454.822 568.485 438.344 567.451 C 438.373 567.446 435.255 566.11 433.462 562.994 C 431.571 556.28 433.235 550.431 435.7 544.752 C 448.5 515.266 461.359 485.806 474.198 456.336 M 490.099 487.008 C 488.959 487.875 487.323 488.497 486.757 489.646 C 481.36 500.6 476.087 511.616 470.969 522.702 C 470.485 523.749 470.995 526.393 471.577 526.573 C 473.105 527.046 475.165 527.027 476.551 526.31 C 477.514 525.812 476.283 523.724 477.696 522.279 C 484.807 522.201 493.346 522.161 500.456 522.182 C 504.836 522.195 506.197 520.592 504.482 516.399 C 501.024 507.942 497.38 499.558 493.649 491.217 C 493.018 489.805 491.57 488.759 490.099 487.008 Z"/>
      <g transform="matrix(1, 0, 0, 1, -213.620132, -0.558117)" style="">
        <path fill="#C07B80" opacity="1.000000" stroke="none" d="M 730.834 547.896 C 722.631 548.206 714.286 548.143 705.036 548.069 C 701.752 548.099 699.374 548.14 696.996 548.182 C 693.302 548.149 689.609 548.116 685.459 548.152 C 684.555 548.183 683.487 548.146 682.142 548.615 C 680.667 549.574 680.707 550.028 679.906 550.968 C 679.614 551.453 679.323 551.938 678.782 552.887 C 678.381 553.893 677.9 555.329 677.647 555.774 C 676.224 558.798 676.014 559.068 673.635 563.71 C 672.231 566.318 670.54 568.526 669.02 569.951 C 663.308 573.327 659.824 571.589 654.48 569.654 C 654.48 569.654 652.226 568.497 651.936 568.014 C 668.442 569.043 668.776 568.97 675.502 552.87 C 677.818 547.326 680.901 544.605 687.38 544.88 C 699.798 545.409 712.256 544.932 724.693 545.157 C 726.706 545.194 728.693 546.699 730.834 547.896 Z"/>
        <path fill="#C07B80" opacity="1.000000" stroke="none" d="M 758.348 569.38 C 750.216 573.814 745.74 573.083 740.89 567.392 C 744.748 567.459 748.759 568.878 752.318 568.134 C 760.413 566.442 761.775 559.551 762.649 552.277 C 763.274 553.105 763.223 553.966 763.505 555.746 C 763.599 558.991 763.889 560.656 762.812 563.634 C 762.399 564.743 760.587 567.22 758.348 569.38 Z"/>
        <path fill="#C07B80" opacity="1.000000" stroke="none" d="M 703.747 487.605 C 699.942 497.302 696.026 506.927 692.173 516.418 C 691.419 518.276 691.575 520.504 691.591 522.818 C 691.331 524.392 691.134 526.37 690.171 526.868 C 688.785 527.585 686.725 527.604 685.197 527.131 C 684.615 526.951 684.105 524.307 684.589 523.26 C 689.707 512.174 694.98 501.158 700.377 490.204 C 700.943 489.055 702.407 488.203 703.747 487.605 Z"/>
      </g>
    </g>
    <g style="">
      <path fill="#C07B80" opacity="1.000000" stroke="none" d="M 645.969 472.413 C 637.3 486.582 620.435 513.577 620.184 513.797 C 615.494 518.508 613.874 524.502 614.074 530.832 C 614.335 539.105 614.172 547.392 614.152 555.673 C 614.125 566.498 611.751 569.533 601.212 572.344 C 597.75 572.475 597.664 572.074 595.225 571.184 C 594.668 570.672 593.128 569.701 592.728 568.943 C 597.677 569.864 603.182 570.393 606.885 566.459 C 609.29 563.905 611.443 560.175 611.764 556.787 C 612.485 549.195 612.5 541.446 611.866 533.839 C 611.068 524.281 614.447 516.325 619.314 508.57 C 627.244 495.934 635.139 483.273 642.788 470.466 C 645.369 466.143 647.068 460.942 649.426 456.094 C 652.922 462.013 649.151 467.067 645.969 472.413 Z"/>
      <path fill="#C07B80" opacity="1.000000" stroke="none" d="M 311.836 567.994 C 315.917 567.72 320.705 569.171 324.525 567.961 C 331.337 565.804 332.914 559.464 332.866 553.052 C 332.754 538.313 332.331 523.577 332.081 508.839 C 332.056 507.371 332.127 505.819 332.603 504.464 C 332.81 503.878 334.158 503.693 334.988 503.325 C 335.062 504.021 335.062 539.926 334.978 556.851 C 334.949 562.69 332.908 567.688 327.487 570.464 C 322.143 573.2 316.681 572.226 311.836 567.994 Z"/>
      <path fill="#C07B80" opacity="1.000000" stroke="none" d="M 419.523 460.472 C 419.912 481.324 420.067 502.48 420.167 523.635 C 420.22 534.798 420.335 545.966 420.076 557.123 C 420.006 560.149 419.255 563.176 417.376 566.493 C 411.473 572.742 405.185 573.142 397.816 569.083 C 398.769 568.633 400.186 568.484 401.3 568.69 C 410.706 570.428 418.731 564.719 418.787 555.266 C 418.89 537.851 418.144 520.432 418.184 503.015 C 418.216 488.934 418.881 474.855 419.523 460.472 Z"/>
      <path fill="#C07B80" opacity="1.000000" stroke="none" d="M 354.927 528.011 C 365.828 530.174 370.886 528.64 377.36 519.355 C 380.009 515.556 382.393 511.56 385.22 507.902 C 386.348 506.443 388.083 505.636 390.472 505.065 C 386.327 511.77 381.741 518.032 377.285 524.388 C 371.424 532.746 362.897 533.964 354.927 528.011 Z"/>
      <g>
        <path fill="#C07B80" opacity="1.000000" stroke="none" d="M 730.834 547.896 C 722.631 548.206 714.286 548.143 705.036 548.069 C 701.752 548.099 699.374 548.14 696.996 548.182 C 693.302 548.149 689.609 548.116 685.459 548.152 C 684.555 548.183 683.487 548.146 682.142 548.615 C 680.667 549.574 680.707 550.028 679.906 550.968 C 679.614 551.453 679.323 551.938 678.782 552.887 C 678.381 553.893 677.9 555.329 677.647 555.774 C 676.224 558.798 676.014 559.068 673.635 563.71 C 672.231 566.318 670.54 568.526 669.02 569.951 C 663.308 573.327 659.824 571.589 654.48 569.654 C 654.48 569.654 652.226 568.497 651.936 568.014 C 668.442 569.043 668.776 568.97 675.502 552.87 C 677.818 547.326 680.901 544.605 687.38 544.88 C 699.798 545.409 712.256 544.932 724.693 545.157 C 726.706 545.194 728.693 546.699 730.834 547.896 Z"/>
        <path fill="#C07B80" opacity="1.000000" stroke="none" d="M 758.348 569.38 C 750.216 573.814 745.74 573.083 740.89 567.392 C 744.748 567.459 748.759 568.878 752.318 568.134 C 760.413 566.442 761.775 559.551 762.649 552.277 C 763.274 553.105 763.223 553.966 763.505 555.746 C 763.599 558.991 763.889 560.656 762.812 563.634 C 762.399 564.743 760.587 567.22 758.348 569.38 Z"/>
        <path fill="#C07B80" opacity="1.000000" stroke="none" d="M 703.747 487.605 C 699.942 497.302 696.026 506.927 692.173 516.418 C 691.419 518.276 691.575 520.504 691.591 522.818 C 691.331 524.392 691.134 526.37 690.171 526.868 C 688.785 527.585 686.725 527.604 685.197 527.131 C 684.615 526.951 684.105 524.307 684.589 523.26 C 689.707 512.174 694.98 501.158 700.377 490.204 C 700.943 489.055 702.407 488.203 703.747 487.605 Z"/>
      </g>
    </g>
  </g>
</svg>