<?xml version="1.0" encoding="utf-8"?>
<svg viewBox="0 0 1024 1024" xmlns="http://www.w3.org/2000/svg">
  <g style="">
    <title>Cloud</title>
    <path fill="#FBFAFA" opacity="1.000000" stroke="none" d="M 190.273 589.769 Z M 187.269 583.401 C 186.131 586.677 188.064 581.113 187.269 583.401 Z M 321.104 383.544 Z M 369.532 367.947 Z M 861.246 526.008 C 860.112 533.317 860.255 540.869 858.29 547.999 C 855.56 557.905 852.567 567.987 847.255 576.782 C 845.88 579.059 840.866 576.645 839.581 578.975 C 838.367 581.176 847.758 574.968 846.944 577.346 C 840.07 597.422 798.648 628.649 788.774 632.449 C 762.735 642.469 734.108 645.983 706.209 646.185 C 687.279 646.322 669.118 628.782 650.821 633.638 C 637.27 637.235 624.451 643.856 610.575 645.861 C 595.971 647.971 492.536 646.123 488.154 646.093 C 472.218 645.985 456.197 647.69 440.345 646.051 C 425.501 644.516 411.165 634.436 396.48 637.092 C 386.552 638.888 377.203 643.456 367.197 644.745 C 352.052 646.695 336.689 647.355 321.431 646.757 C 305.573 646.136 289.396 645.535 274.159 641.099 C 260.295 637.063 248.535 627.757 235.419 621.717 C 232.484 620.365 228.997 617.507 226.119 618.977 C 216.726 623.776 234.064 648.301 232.62 650.095 C 229.592 653.856 224.871 644.332 220.965 641.493 C 219.16 640.181 213.307 637.072 211.353 633.855 C 208.143 628.572 205.251 623.094 201.897 617.901 C 199.321 613.913 196.301 610.229 193.578 606.339 C 184.122 592.829 180.675 566.505 177.088 550.409 C 176.265 546.716 182.588 563.634 183.292 559.916 C 184.015 556.098 177.806 553.83 177.166 549.997 C 174.306 532.88 178.127 514.689 182.966 498.433 C 195.058 457.816 218.875 423.92 256.561 403.307 C 258.219 402.4 251.215 408.054 253.087 407.789 C 255.05 407.511 255.344 404.437 256.935 403.254 C 262.051 399.447 269.09 399.334 274.959 396.839 C 277.684 395.68 263.649 399.708 266.173 398.159 C 273.739 393.514 282.195 390.452 290.495 387.301 C 300.206 383.614 319.583 381.936 329.099 382.167 C 335.917 382.333 342.679 383.445 349.461 384.167 C 353.78 384.627 358.146 386.59 362.4 385.713 C 367.662 384.628 369.267 369.001 369.455 368.354 C 370.47 364.869 370.231 356.573 373.46 358.229 C 374.357 358.689 375.336 361.229 375.68 360.282 C 376.035 359.304 373.42 359.047 373.538 358.014 C 374.604 348.693 391.878 322.012 392.095 321.704 C 398.252 312.977 405.427 304.976 412.836 297.284 C 413.456 296.64 414.926 298.057 415.517 297.385 C 416.07 296.756 414.27 295.524 414.884 294.955 C 423.671 286.815 432.552 277.889 443.682 273.461 C 444.298 273.216 444.814 274.673 445.425 274.416 C 445.904 274.215 444.466 273.258 444.887 272.954 C 446.933 271.48 465.871 260.728 469.707 259.186 C 507.16 244.133 544.685 242.706 584.025 250.845 C 633.807 261.145 673.675 294.593 697.512 338.305 C 701.544 345.698 704.152 353.796 706.938 361.743 C 708.622 366.548 709.956 371.491 710.9 376.494 C 711.36 378.933 708.679 383.528 711.127 383.938 C 724.167 386.124 737.579 382.57 750.787 383.181 C 767.747 383.966 792.279 394.56 804.849 401.08 C 814.015 405.835 823.886 410.507 830.518 418.422 C 848.186 439.507 862.306 463.373 876.693 486.819 C 877.416 487.998 873.746 487.601 872.546 486.914 C 870.737 485.878 868.449 479.598 861.246 526.008 Z M 882.863 505.51 C 877.564 501.126 875.054 493.973 872.908 487.439 C 872.498 486.19 875.83 486.343 876.843 487.181 C 878.578 488.616 879.183 491.072 879.885 493.211 C 881.201 497.219 886.113 508.199 882.863 505.51 Z" style="pointer-events: none;"/>
    <path fill="#B0CCDA" opacity="1.000000" stroke="none" d="M 232.986 650.056 C 230.63 645.135 228.134 640.275 225.977 635.268 C 224.941 632.864 224.636 630.155 223.836 627.635 C 222.729 624.147 222.81 619.975 226.119 618.977 C 228.762 618.18 233.146 619.708 235.419 621.717 C 246.674 631.667 260.105 636.823 274.159 641.099 C 289.62 645.802 305.538 646.627 321.431 646.757 C 336.691 646.882 352.051 646.447 367.197 644.745 C 377.128 643.629 386.834 640.074 396.48 637.092 C 400.126 635.965 403.084 635.87 406.448 637.645 C 417.032 643.225 428.307 646.117 440.345 646.051 C 456.281 645.964 472.219 645.961 488.154 646.093 C 511.893 646.289 535.631 646.828 559.369 646.854 C 576.439 646.873 593.529 646.689 610.575 645.861 C 624.886 645.165 638.082 640.042 650.821 633.638 C 652.678 632.705 655.797 632.468 657.536 633.397 C 672.781 641.545 689.038 645.11 706.209 646.185 C 734.871 647.979 762.585 644.502 788.774 632.449 C 806.348 624.36 821.309 612.522 833.315 597.275 C 838.221 591.044 842.399 584.24 847.218 577.132 C 851.187 567.065 855.492 557.748 858.29 547.999 C 860.308 540.966 860.236 533.346 861.246 526.008 C 862.752 515.064 860.12 504.564 858.036 493.995 C 856.879 489.826 855.722 485.656 854.279 480.941 C 853.692 479.925 853.39 479.454 853.088 478.984 C 851.718 475.657 850.173 472.387 849.065 468.975 C 848.629 467.632 849.166 465.973 849.26 464.457 C 850.72 465.017 852.575 465.187 853.573 466.201 C 858.679 471.388 863.585 476.773 868.512 482.134 C 869.849 483.589 871.018 485.199 872.626 487.263 C 876.261 493.829 879.534 499.869 882.807 505.909 C 884.211 511.456 886.084 516.935 886.893 522.567 C 887.777 528.732 888.471 535.12 887.834 541.263 C 886.698 552.203 887.905 563.417 883.591 574.053 C 880.26 582.266 878.087 590.943 874.971 599.253 C 872.971 604.586 870.194 609.628 867.154 614.803 C 865.326 615.586 863.869 616.148 862.935 617.183 C 857.259 623.47 852.238 630.458 845.992 636.097 C 834.092 646.838 820.536 655.251 805.758 661.633 C 784.525 670.801 762.47 676.565 739.282 676.875 C 714.122 677.211 688.953 677.197 663.792 676.951 C 538.884 675.731 413.949 679.612 289.03 674.971 C 289 675 288.033 675.343 287.785 675.056 C 282.678 673.631 267.413 669.564 266.528 669.22 C 265.051 668.463 263.963 667.436 262.797 666.826 C 252.836 661.608 242.88 656.379 233.098 651.031 C 233.354 650.794 233.528 650.612 233.502 650.577 C 233.345 650.365 233.142 650.187 232.98 650.003 C 233.005 650.008 232.986 650.056 232.986 650.056 Z" style="pointer-events: none;"/>
    <path fill="#B3CFDD" opacity="1.000000" stroke="none" d="M 662.155 345.176 C 657.194 336.555 652.527 328.069 647.72 319.663 C 647.109 318.595 641.475 313.327 640.063 311.614 C 638.67 310.496 628.055 301.56 626.225 300.657 C 620.618 296.492 614.943 292.414 609.437 288.119 C 607.173 286.353 603.188 282.927 603.549 282.295 C 605.82 278.327 609.385 281.083 612.222 282.003 C 627.904 287.088 641.503 295.71 653.483 306.975 C 656.012 309.353 658.666 311.6 661.644 314.39 C 662.941 315.353 670.436 326.344 673.362 330.531 C 677.817 336.906 682.079 343.457 687.005 349.455 C 694.691 358.813 702.864 367.77 710.831 376.897 C 710.817 379.018 710.803 381.138 710.958 383.598 C 695.517 387.637 682.106 395.497 669.633 406.212 C 670.983 387.662 670.376 369.783 664.327 351.796 C 663.659 349.784 663.261 348.4 662.864 347.016 C 662.712 346.456 662.559 345.897 662.155 345.176 Z" style="pointer-events: none;"/>
    <path opacity="1.000000" d="M 530.006 701.041 C 521.575 701.089 475.571 701.043 474.859 701.011 C 433.406 701.007 392.664 701.034 351.923 701.061 C 351.923 701.061 335.477 700.665 328.049 700.83 C 320.651 700.21 286.783 694.302 278.147 690.863 C 270.392 687.776 263.399 682.828 255.884 679.073 C 245.254 673.763 236.907 665.602 228.924 657.218 C 222.978 650.974 218.279 643.543 213.064 636.273 C 215.727 637.764 218.39 639.569 220.965 641.493 C 224.761 644.329 228.494 647.25 232.62 650.095 C 232.986 650.056 252.836 661.608 262.797 666.826 C 263.963 667.436 265.161 667.987 266.818 669.002 C 267.872 669.607 288.813 675.457 289.06 674.941 C 413.949 679.612 538.884 675.731 663.792 676.951 C 688.953 677.197 714.122 677.211 739.282 676.875 C 762.47 676.565 784.525 670.801 805.758 661.633 C 820.536 655.251 834.092 646.838 845.992 636.097 C 852.238 630.458 857.259 623.47 862.935 617.183 C 863.869 616.148 865.326 615.586 866.825 614.952 C 857.283 633.313 845.14 649.877 829.751 663.675 C 818.864 673.437 806.995 682.264 793.036 687.373 C 781.586 691.563 770.009 695.539 758.24 698.676 C 751.707 700.418 744.664 700.245 737.096 700.617 C 729.572 700.489 658.427 701.04 657.886 700.69 C 649.246 700.508 558.985 700.874 530.006 701.041 Z" style="fill: rgb(126, 162, 188); pointer-events: none;"/>
    <path d="M 474.859 701.511 C 433.406 701.507 392.631 701.533 351.89 701.56 C 351.89 701.56 351.358 701.498 350.747 701.178 C 342.783 700.996 335.488 701.165 328.06 701.33 L 328.034 701.33 L 328.007 701.328 C 320.785 700.723 313.551 700.116 305.872 699.116 L 305.94 699.239 L 304.824 698.959 C 295.906 696.723 286.639 694.779 277.962 691.328 C 270.155 688.212 263.143 683.256 255.661 679.52 C 244.968 674.165 236.551 665.953 228.562 657.563 C 222.586 651.28 217.865 643.822 212.658 636.564 L 211.348 634.738 L 213.308 635.837 C 215.989 637.339 218.68 639.162 221.264 641.092 C 225.065 643.932 228.707 646.782 232.767 649.589 C 232.889 649.588 232.972 649.536 233.15 649.619 C 233.249 649.665 233.401 649.835 233.435 649.943 C 233.46 650.023 233.462 650.15 233.454 650.205 C 233.444 650.278 233.426 650.336 233.407 650.398 C 233.359 650.768 233.376 650.727 233.383 650.831 C 243.265 656.016 253.068 661.165 263.029 666.383 C 264.183 666.987 265.394 667.546 267.074 668.573 C 268.073 669.154 268.592 669.295 269.171 669.462 L 269.433 669.537 L 269.499 669.76 C 269.499 669.76 269.51 669.797 269.528 669.901 C 270.445 670.185 271.197 670.28 272.014 670.348 L 271.011 669.743 L 274.096 670.465 C 278.957 671.603 283.834 672.746 288.671 674.228 L 289.23 674.4 L 289.208 674.446 C 414.037 679.11 538.922 675.232 663.797 676.451 C 688.956 676.697 714.119 676.711 739.275 676.375 C 762.403 676.073 784.363 670.33 805.56 661.174 C 820.305 654.809 833.793 646.44 845.657 635.726 C 851.867 630.127 856.87 623.157 862.564 616.848 C 863.593 615.747 865.139 615.123 866.63 614.491 L 867.909 613.95 L 867.269 615.183 C 857.706 633.576 845.509 650.211 830.085 664.047 C 819.18 673.824 807.23 682.699 793.208 687.843 C 781.753 692.034 770.155 696.017 758.369 699.159 C 751.765 700.909 744.637 700.745 737.087 701.117 C 729.575 700.989 722.854 701.178 716.104 701.367 C 715.913 701.416 715.663 701.516 714.856 701.505 C 695.731 701.508 677.299 701.534 658.89 701.561 C 658.89 701.561 658.363 701.508 657.754 701.187 C 649.124 701.005 641.15 701.175 633.049 701.342 C 627.993 701.394 622.921 701.446 617.068 701.16 L 617.019 701.158 L 616.973 701.147 C 616.881 701.124 616.792 701.102 616.705 701.081 L 616.632 701.082 C 587.969 701.391 558.986 701.374 530.009 701.541 C 521.601 701.588 513.171 702.437 504.716 702.427 C 495.447 702.415 486.183 701.832 476.472 701.444 L 475.958 701.423 C 475.764 701.47 475.441 701.525 474.859 701.511 Z M 504.718 701.427 C 513.121 701.439 521.549 700.59 530.003 700.541 C 558.414 700.377 586.824 700.39 614.93 700.1 L 615.001 699.692 C 615.607 699.796 616.292 699.95 617.165 700.164 C 622.968 700.446 627.98 700.394 633.036 700.342 C 641.136 700.175 649.246 700.008 657.897 700.19 L 658.055 700.193 L 658.158 700.27 C 658.574 700.58 658.936 700.563 658.936 700.563 C 677.345 700.536 695.731 700.508 714.856 700.505 C 715.481 700.544 715.869 700.397 715.869 700.397 L 715.933 700.372 L 716.02 700.369 C 722.789 700.179 729.553 699.989 737.088 700.117 C 744.668 699.746 751.649 699.927 758.111 698.193 C 769.863 695.061 781.419 691.092 792.864 686.903 C 806.76 681.829 818.548 673.05 829.417 663.303 C 844.771 649.543 856.314 633.79 865.735 615.955 C 864.753 616.384 864.145 616.549 863.306 617.518 C 857.648 623.783 852.609 630.789 846.327 636.468 C 834.391 647.236 820.767 655.693 805.956 662.092 C 784.687 671.272 762.537 677.057 739.289 677.375 C 714.125 677.711 688.95 677.697 663.787 677.451 C 538.889 676.231 414.167 680.105 289.371 675.453 C 289.174 675.874 289.03 676.216 288.712 676.732 C 288.561 676.848 288.331 676.98 288.244 676.977 C 288.191 676.976 288.116 676.963 288.073 676.953 C 288.001 676.935 287.908 676.903 287.827 676.874 C 287.669 676.816 287.5 676.746 287.388 676.711 L 286.7 676.492 L 287.15 675.924 C 287.464 675.528 287.477 675.699 287.802 675.009 C 283.332 673.655 280.614 673.031 276.706 672.106 C 279.102 673.717 280.524 674.899 284.432 677.257 C 280.524 674.899 277.066 673.397 273.637 671.435 C 273.446 671.431 273.187 671.44 273.187 671.44 L 273.159 671.441 L 273.129 671.438 C 271.776 671.324 270.37 671.201 268.933 670.769 L 268.601 670.669 L 268.581 670.339 C 268.567 670.098 268.581 670.333 268.581 670.33 C 268.076 670.175 267.678 670.064 266.569 669.436 C 264.938 668.435 263.743 667.885 262.565 667.269 C 252.604 662.051 242.648 656.822 232.69 651.597 L 232.468 651.48 L 232.428 651.233 C 232.404 651.08 232.379 650.886 232.396 650.548 L 232.336 650.507 C 228.198 647.653 224.457 644.726 220.666 641.894 C 218.1 639.976 217.471 639.37 214.826 637.89 C 219.519 644.547 223.37 650.668 229.286 656.873 C 237.263 665.251 245.54 673.361 256.107 678.626 C 263.655 682.4 270.629 687.34 278.332 690.398 C 286.927 693.825 294.992 695.466 303.93 697.706 C 301.346 693.6 297.855 692.502 293.474 691.814 L 293.63 690.826 C 298.121 691.537 302.525 692.867 305.678 698.082 C 313.454 699.105 320.675 699.71 328.064 700.33 C 335.484 700.165 342.904 699.999 350.89 700.181 L 351.043 700.185 L 351.146 700.259 C 351.577 700.567 351.826 700.555 351.925 700.561 C 392.665 700.534 433.406 700.507 474.859 700.511 C 475.479 700.556 475.866 700.415 475.866 700.415 L 475.888 700.406 L 475.926 700.398 C 477.114 700.156 478.362 699.712 479.645 699.583 L 479.74 700.579 C 478.591 700.679 479.731 700.579 479.727 700.58 C 488.283 700.956 495.479 701.415 504.718 701.427 Z M 320.995 688.107 C 320.492 688.317 319.715 688.232 319.14 688.523 C 319.667 688.256 320.024 687.436 320.606 687.186 Z M 287.797 690.062 C 289.15 690.265 290.555 690.41 291.977 690.593 L 291.849 691.585 C 290.443 691.405 289.026 691.258 287.648 691.05 Z M 308.097 684.387 C 307.767 685.09 307.585 686.027 307.672 686.085 L 306.732 685.463 C 306.75 684.988 306.788 684.475 306.795 684.133 L 306.807 683.592 L 307.346 683.648 C 307.46 683.659 307.577 683.67 307.694 683.683 L 308.394 683.756 Z M 308.833 686.794 C 310.523 687.264 312.345 687.234 314.046 687.633 L 313.818 688.607 C 312.101 688.205 310.527 687.266 308.833 686.794 Z" style="fill: none;"/>
  </g>
  <g style="pointer-events: none;">
    <title>Maya</title>
    <g>
      <title>Highlight</title>
      <path fill="#FBA9A4" opacity="1.000000" stroke="none" style="" d="&#10;M308.447388,563.998596 &#10;&#9;C307.625977,561.235596 306.291351,558.510681 306.083160,555.702209 &#10;&#9;C305.545105,548.444031 305.504333,541.148987 305.259583,533.456543 &#10;&#9;C305.477966,529.005371 305.701721,524.966309 305.937683,520.057251 &#10;&#9;C305.900604,517.783813 305.851288,516.380371 305.802002,514.976929 &#10;&#9;C305.831055,511.953918 305.860107,508.930939 305.905090,504.996368 &#10;&#9;C305.874023,499.054504 305.826996,494.024231 305.779968,488.993927 &#10;&#9;C305.817902,483.639801 305.855835,478.285706 305.912903,472.008423 &#10;&#9;C305.995148,466.727356 306.058289,462.369415 306.121460,458.011505 &#10;&#9;C311.557709,443.520569 329.366943,442.657532 337.266083,456.192566 &#10;&#9;C344.712311,468.951569 353.236176,481.081970 361.310120,493.473175 &#10;&#9;C361.645844,493.988464 362.226929,494.343872 363.409424,495.432831 &#10;&#9;C367.847137,488.510864 372.100525,481.879669 376.350586,475.246277 &#10;&#9;C380.647644,468.539490 384.677490,461.642181 389.300293,455.168121 &#10;&#9;C395.738312,446.151855 402.142242,444.604309 412.751801,449.249207 &#10;&#9;C415.157806,451.483948 417.022522,453.370911 418.887268,455.257843 &#10;&#9;C418.887268,455.257843 418.891998,455.637360 418.953552,456.175446 &#10;&#9;C419.270142,457.865143 419.525177,459.016785 419.522766,460.471741 &#10;&#9;C418.880981,474.854919 418.215637,488.934143 418.183807,503.014801 &#10;&#9;C418.144440,520.431519 418.889679,537.850891 418.786896,555.266113 &#10;&#9;C418.731110,564.718506 410.705872,570.428040 401.299622,568.689636 &#10;&#9;C400.185608,568.483704 398.952545,568.921936 397.774658,569.061523 &#10;&#9;C393.596741,565.508484 391.796143,561.027771 391.853302,555.514099 &#10;&#9;C392.006073,540.770203 391.975189,526.023865 391.916321,511.278870 &#10;&#9;C391.908691,509.373932 391.305389,507.471405 390.463928,505.066589 &#10;&#9;C388.347229,505.657593 386.347992,506.443176 385.220062,507.902283 &#10;&#9;C382.392914,511.559692 380.008667,515.555786 377.359650,519.355286 &#10;&#9;C370.886444,528.639832 365.870605,530.557251 354.936554,528.033447 &#10;&#9;C354.936554,528.033447 354.995209,528.003601 354.934937,527.700195 &#10;&#9;C353.609344,526.599182 352.344086,525.801636 351.078827,525.004028 &#10;&#9;C347.463623,520.151550 343.912231,515.249390 340.197876,510.474091 &#10;&#9;C338.932800,508.847656 337.257599,507.540253 335.489258,505.750549 &#10;&#9;C335.135162,504.717712 335.061615,504.021454 334.988068,503.325165 &#10;&#9;C334.158325,503.692566 332.809601,503.877563 332.603455,504.464172 &#10;&#9;C332.127197,505.819122 332.056000,507.371307 332.080933,508.839050 &#10;&#9;C332.330933,523.576904 332.754242,538.312988 332.865540,553.051514 &#10;&#9;C332.913971,559.464233 331.336853,565.803955 324.525024,567.960999 &#10;&#9;C320.704651,569.170837 316.154785,568.076843 311.933594,568.020874 &#10;&#9;C311.933594,568.020874 311.996277,568.004517 311.972473,567.694702 &#10;&#9;C311.272369,566.929504 310.596069,566.474182 309.919800,566.018860 &#10;&#9;C309.919800,566.018860 309.987213,566.003967 309.953186,565.678589 &#10;&#9;C309.428528,564.901733 308.937958,564.450195 308.447388,563.998596 &#10;z"/>
      <path fill="#FBA9A4" opacity="1.000000" stroke="none" style="" d="&#10;M687.817871,456.894257 &#10;&#9;C691.808777,449.755920 698.235352,446.145599 706.069275,446.244904 &#10;&#9;C714.542786,446.352264 719.957520,451.618011 723.131409,459.263611 &#10;&#9;C724.716919,463.082794 726.251648,466.924042 727.899536,470.716095 &#10;&#9;C732.372314,481.008606 736.893188,491.280212 741.706299,502.159973 &#10;&#9;C744.760254,509.139160 747.530273,515.506897 750.239441,521.900391 &#10;&#9;C754.487122,531.924316 758.693665,541.965698 762.649292,552.277100 &#10;&#9;C761.774536,559.550598 760.413147,566.441589 752.317505,568.134033 &#10;&#9;C748.758728,568.877991 744.747742,567.458801 740.968140,567.008911 &#10;&#9;C740.994202,566.996155 740.990417,567.054016 740.898926,566.807617 &#10;&#9;C740.518921,566.376770 740.230469,566.192261 739.972900,566.004395 &#10;&#9;C740.003784,566.000977 739.996582,566.062683 739.909912,565.880554 &#10;&#9;C739.523254,565.808167 739.223267,565.917908 738.615601,565.881470 &#10;&#9;C736.563049,562.805481 734.818298,559.875732 733.036499,556.603516 &#10;&#9;C732.635681,555.170349 732.271851,554.079590 731.896179,552.640747 &#10;&#9;C731.581604,550.950989 731.278870,549.609314 730.833862,547.896484 &#10;&#9;C728.692688,546.698853 726.706116,545.193542 724.692871,545.157043 &#10;&#9;C712.256409,544.931641 699.798096,545.408508 687.379883,544.880188 &#10;&#9;C680.901062,544.604553 677.818237,547.325684 675.501953,552.870117 &#10;&#9;C668.776062,568.970032 668.441589,569.042969 651.964417,568.008789 &#10;&#9;C651.992859,568.003784 651.994690,568.061096 652.004883,567.668091 &#10;&#9;C651.162476,566.520020 650.309814,565.764954 649.187256,565.001587 &#10;&#9;C648.301636,564.635193 647.685913,564.277039 647.070190,563.918945 &#10;&#9;C647.070190,563.918945 647.058105,564.009399 647.081665,563.552490 &#10;&#9;C645.191162,556.837769 646.855164,550.988647 649.320190,545.310181 &#10;&#9;C662.120300,515.824097 674.979309,486.363647 687.817871,456.894257 &#10;M703.718567,487.566162 &#10;&#9;C702.578857,488.432861 700.942871,489.055054 700.376648,490.204346 &#10;&#9;C694.979675,501.157623 689.706726,512.173828 684.588989,523.260071 &#10;&#9;C684.105469,524.307373 684.615356,526.951355 685.197083,527.131409 &#10;&#9;C686.724915,527.604248 688.784912,527.584778 690.170959,526.868103 &#10;&#9;C691.133728,526.370239 691.331055,524.392029 692.744019,522.947266 &#10;&#9;C699.854736,522.869202 706.965698,522.718567 714.076111,522.739929 &#10;&#9;C718.455872,522.753113 719.816528,521.150208 718.102112,516.957031 &#10;&#9;C714.644104,508.499573 710.999695,500.115845 707.268860,491.774689 &#10;&#9;C706.637634,490.363495 705.190063,489.317474 703.718567,487.566162 &#10;z"/>
      <path fill="#FBA9A4" opacity="1.000000" stroke="none" style="" d="&#10;M436.747681,566.107910 &#10;&#9;C435.743652,564.827454 434.739655,563.546997 433.417572,561.648682 &#10;&#9;C433.738159,556.484863 433.571167,551.630981 435.168610,547.451477 &#10;&#9;C439.715759,535.554565 444.934448,523.912048 449.976318,512.207092 &#10;&#9;C457.911316,493.785767 465.917786,475.395233 473.894012,456.991669 &#10;&#9;C473.894012,456.991669 474.008118,456.566925 474.245056,456.214966 &#10;&#9;C474.655334,455.574554 474.828705,455.286072 475.002075,454.997589 &#10;&#9;C475.002045,454.997589 475.178619,454.592499 475.525818,454.264069 &#10;&#9;C478.919098,451.631256 481.965149,449.326874 485.011169,447.022461 &#10;&#9;C487.395264,446.705261 489.779327,446.388062 492.830444,446.301147 &#10;&#9;C496.275757,447.439606 499.054016,448.347778 501.832275,449.255981 &#10;&#9;C502.364380,449.816071 502.896454,450.376129 503.820282,451.378693 &#10;&#9;C506.986115,456.913696 510.127411,461.843323 512.471191,467.126709 &#10;&#9;C522.955261,490.760284 533.245544,514.480164 543.521973,538.205139 &#10;&#9;C545.543396,542.872009 547.194336,547.699402 548.987061,552.907837 &#10;&#9;C548.944885,554.028259 548.984375,554.699524 548.910278,555.357971 &#10;&#9;C548.253845,561.186951 545.837585,566.087952 540.166382,568.243713 &#10;&#9;C535.184509,570.137390 530.361511,569.241150 526.475525,565.124512 &#10;&#9;C526.210388,564.843689 525.394226,565.082947 524.535461,564.911316 &#10;&#9;C521.856445,560.086853 519.476318,555.431458 517.070557,550.573975 &#10;&#9;C517.044922,550.371887 516.894470,549.993347 516.888367,549.706665 &#10;&#9;C516.598511,548.951477 516.314758,548.483093 516.001953,547.615540 &#10;&#9;C514.478821,546.490112 512.991089,545.148499 511.489716,545.133118 &#10;&#9;C497.227509,544.986694 482.961639,544.979980 468.701050,545.202148 &#10;&#9;C467.152771,545.226318 464.979156,546.585754 464.221985,547.950623 &#10;&#9;C462.144592,551.695435 460.702393,555.788818 458.945709,559.716064 &#10;&#9;C454.783600,569.020813 446.762024,571.450134 438.410492,566.021362 &#10;&#9;C438.034058,565.776672 437.309875,566.066895 436.747681,566.107910 &#10;M478.043762,522.857117 &#10;&#9;C485.706360,522.873108 493.369141,522.930237 501.031433,522.890198 &#10;&#9;C505.986847,522.864319 506.758179,521.897644 504.828400,517.242554 &#10;&#9;C501.136932,508.337891 497.224304,499.522522 493.234070,490.747131 &#10;&#9;C492.719513,489.615509 491.197968,488.941803 489.712372,487.499908 &#10;&#9;C488.632599,488.318390 487.097229,488.904724 486.543701,489.991272 &#10;&#9;C481.155396,500.568420 475.815979,511.175446 470.797119,521.930054 &#10;&#9;C470.121185,523.378479 470.641937,526.648254 471.748047,527.401672 &#10;&#9;C474.027771,528.954529 476.151093,527.624634 476.861938,524.780212 &#10;&#9;C477.021912,524.140076 477.040161,523.464600 478.043762,522.857117 &#10;z"/>
      <path fill="#FBA9A4" opacity="1.000000" stroke="none" style="" d="&#10;M576.958130,454.009094 &#10;&#9;C581.836670,462.672729 586.679626,471.356628 591.608337,479.991577 &#10;&#9;C594.121033,484.393738 596.787659,488.708008 600.110168,494.278351 &#10;&#9;C603.525085,488.385376 606.263794,483.564880 609.092834,478.798035 &#10;&#9;C614.260986,470.089752 618.880615,460.972626 624.835327,452.835632 &#10;&#9;C632.167297,442.816620 643.692444,444.418365 649.490173,456.153748 &#10;&#9;C647.157776,461.347198 645.369446,466.143494 642.787903,470.466064 &#10;&#9;C635.139282,483.272797 627.244324,495.934357 619.314148,508.570160 &#10;&#9;C614.447021,516.325256 611.068298,524.281067 611.865540,533.838928 &#10;&#9;C612.500061,541.445923 612.485046,549.195251 611.764221,556.786987 &#10;&#9;C611.442505,560.174927 609.289978,563.904724 606.884949,566.459412 &#10;&#9;C603.182007,570.392639 597.992004,570.179199 592.629150,568.909912 &#10;&#9;C586.952515,563.808899 585.726746,557.474915 585.990295,550.426270 &#10;&#9;C586.276001,542.785828 586.099243,535.125000 585.987915,527.475037 &#10;&#9;C585.962097,525.699890 585.823792,523.684753 584.987732,522.202820 &#10;&#9;C580.106934,513.551392 575.062256,504.990234 569.959229,496.466705 &#10;&#9;C563.823486,486.218262 557.297180,476.192749 551.468201,465.775177 &#10;&#9;C547.390503,458.487518 550.814880,450.335022 558.579834,447.422058 &#10;&#9;C563.568909,445.550476 568.327515,446.825989 572.897095,449.117249 &#10;&#9;C572.897095,449.117249 572.995117,449.004883 572.989319,449.377991 &#10;&#9;C574.308411,451.170441 575.633301,452.589783 576.958130,454.009094 &#10;z"/>
    </g>
    <g style="">
      <path fill="#C07B80" opacity="1.000000" stroke="none" d="&#10;M620.705261,513.980774 &#10;&#9;C620.705261,513.980774 620.615295,514.207458 620.364319,514.427246 &#10;&#9;C615.673950,519.137512 613.874146,524.502441 614.073853,530.831909 &#10;&#9;C614.334839,539.104980 614.172241,547.392151 614.151611,555.673157 &#10;&#9;C614.124634,566.498352 611.751404,569.532532 601.211792,572.343689 &#10;&#9;C600.766968,572.294556 600.322144,572.245422 599.254639,572.142456 &#10;&#9;C597.424011,571.783264 596.216003,571.477905 595.008057,571.172546 &#10;&#9;C595.008057,571.172546 594.556702,571.039185 594.324097,571.004089 &#10;&#9;C593.767334,570.492371 593.443115,570.015747 593.042847,569.257935 &#10;&#9;C597.992004,570.179199 603.182007,570.392639 606.884949,566.459412 &#10;&#9;C609.289978,563.904724 611.442505,560.174927 611.764221,556.786987 &#10;&#9;C612.485046,549.195251 612.500061,541.445923 611.865540,533.838928 &#10;&#9;C611.068298,524.281067 614.447021,516.325256 619.314148,508.570160 &#10;&#9;C627.244324,495.934357 635.139282,483.272797 642.787903,470.466064 &#10;&#9;C645.369446,466.143494 647.157776,461.347198 649.515747,456.498657 &#10;&#9;C653.012024,462.418213 649.150696,467.067444 645.968994,472.412964 &#10;&#9;C637.299927,486.582245 629.002563,500.281494 620.705261,513.980774 &#10;z"/>
      <path fill="#C07B80" opacity="1.000000" stroke="none" d="&#10;M516.001953,547.615540 &#10;&#9;C509.997986,548.035461 503.964935,548.056274 497.467712,548.142700 &#10;&#9;C496.541382,548.172241 496.079163,548.136169 494.821411,548.097412 &#10;&#9;C490.371582,548.121277 486.717346,548.147888 483.063080,548.174438 &#10;&#9;C480.007812,548.145264 476.952545,548.116150 473.036255,548.103760 &#10;&#9;C471.079498,548.195435 469.983765,548.270325 468.595581,548.265991 &#10;&#9;C467.657104,548.463257 467.011078,548.739685 466.189880,549.343811 &#10;&#9;C465.291534,551.763245 464.568420,553.854980 463.845276,555.946716 &#10;&#9;C462.224091,559.187683 460.961182,562.677917 458.913269,565.622009 &#10;&#9;C453.225861,573.798279 443.936310,574.174866 436.854004,566.449341 &#10;&#9;C437.309875,566.066895 438.034058,565.776672 438.410492,566.021362 &#10;&#9;C446.762024,571.450134 454.783600,569.020813 458.945709,559.716064 &#10;&#9;C460.702393,555.788818 462.144592,551.695435 464.221985,547.950623 &#10;&#9;C464.979156,546.585754 467.152771,545.226318 468.701050,545.202148 &#10;&#9;C482.961639,544.979980 497.227509,544.986694 511.489716,545.133118 &#10;&#9;C512.991089,545.148499 514.478821,546.490112 516.001953,547.615540 &#10;z"/>
      <path fill="#C07B80" opacity="1.000000" stroke="none" d="&#10;M730.833862,547.896484 &#10;&#9;C722.630981,548.205505 714.285889,548.143250 705.035645,548.068909 &#10;&#9;C701.752197,548.098511 699.373840,548.140198 696.995544,548.181946 &#10;&#9;C693.302307,548.149109 689.609070,548.116272 685.459351,548.151611 &#10;&#9;C684.554871,548.182861 684.106812,548.145996 682.984497,548.127808 &#10;&#9;C681.508789,549.087158 680.707397,550.027832 679.906006,550.968445 &#10;&#9;C679.614441,551.453064 679.322815,551.937683 678.782349,552.887268 &#10;&#9;C678.381348,553.893066 678.229126,554.433899 678.076904,554.974670 &#10;&#9;C678.076904,554.974670 677.900085,555.329346 677.646606,555.773621 &#10;&#9;C676.223511,558.798401 675.053955,561.378967 673.884338,563.959473 &#10;&#9;C673.581787,564.363281 673.279236,564.767090 672.722168,565.593872 &#10;&#9;C672.287109,566.336487 672.106567,566.656128 671.926025,566.975830 &#10;&#9;C671.926025,566.975830 671.996399,566.986938 671.696411,567.101440 &#10;&#9;C670.844727,568.056396 670.293091,568.896912 669.741455,569.737488 &#10;&#9;C669.741455,569.737488 669.829407,569.805969 669.411072,569.808777 &#10;&#9;C663.699463,573.184753 658.361633,571.898621 653.017578,569.964478 &#10;&#9;C653.017578,569.964478 653.000671,570.001953 652.903442,569.732422 &#10;&#9;C652.516174,568.979858 652.226074,568.496887 651.935974,568.013855 &#10;&#9;C668.441589,569.042969 668.776062,568.970032 675.501953,552.870117 &#10;&#9;C677.818237,547.325684 680.901062,544.604553 687.379883,544.880188 &#10;&#9;C699.798096,545.408508 712.256409,544.931641 724.692871,545.157043 &#10;&#9;C726.706116,545.193542 728.692688,546.698853 730.833862,547.896484 &#10;z"/>
      <path fill="#C07B80" opacity="1.000000" stroke="none" d="&#10;M312.073608,568.351379 &#10;&#9;C316.154785,568.076843 320.704651,569.170837 324.525024,567.960999 &#10;&#9;C331.336853,565.803955 332.913971,559.464233 332.865540,553.051514 &#10;&#9;C332.754242,538.312988 332.330933,523.576904 332.080933,508.839050 &#10;&#9;C332.056000,507.371307 332.127197,505.819122 332.603455,504.464172 &#10;&#9;C332.809601,503.877563 334.158325,503.692566 334.988068,503.325165 &#10;&#9;C335.061615,504.021454 335.135162,504.717712 335.146851,505.744690 &#10;&#9;C335.055756,523.000671 335.061890,539.926147 334.977814,556.851135 &#10;&#9;C334.948822,562.690308 332.907898,567.688416 327.486908,570.463928 &#10;&#9;C322.142517,573.200256 316.919312,572.582520 312.073608,568.351379 &#10;z"/>
      <path fill="#C07B80" opacity="1.000000" stroke="none" d="&#10;M419.522766,460.471741 &#10;&#9;C419.912231,481.324005 420.066742,502.479553 420.167053,523.635315 &#10;&#9;C420.220001,534.798340 420.335114,545.965515 420.076294,557.122742 &#10;&#9;C420.006073,560.149475 418.677643,563.147095 417.778748,566.521729 &#10;&#9;C411.876129,572.770813 405.368011,573.430603 397.999573,569.372437 &#10;&#9;C398.952545,568.921936 400.185608,568.483704 401.299622,568.689636 &#10;&#9;C410.705872,570.428040 418.731110,564.718506 418.786896,555.266113 &#10;&#9;C418.889679,537.850891 418.144440,520.431519 418.183807,503.014801 &#10;&#9;C418.215637,488.934143 418.880981,474.854919 419.522766,460.471741 &#10;z"/>
      <path fill="#C07B80" opacity="1.000000" stroke="none" d="&#10;M354.970337,528.394165 &#10;&#9;C365.870605,530.557251 370.886444,528.639832 377.359650,519.355286 &#10;&#9;C380.008667,515.555786 382.392914,511.559692 385.220062,507.902283 &#10;&#9;C386.347992,506.443176 388.347229,505.657593 390.162048,504.845276 &#10;&#9;C386.017700,511.550720 381.741180,518.032349 377.284760,524.387878 &#10;&#9;C371.424469,532.745605 362.939545,534.347351 354.970337,528.394165 &#10;z"/>
      <path fill="#C07B80" opacity="1.000000" stroke="none" d="&#10;M537.325806,572.130981 &#10;&#9;C532.228577,571.477417 527.719543,570.301331 524.922668,565.421936 &#10;&#9;C525.394226,565.082947 526.210388,564.843689 526.475525,565.124512 &#10;&#9;C530.361511,569.241150 535.184509,570.137390 540.166382,568.243713 &#10;&#9;C545.837585,566.087952 548.253845,561.186951 548.910278,555.357971 &#10;&#9;C548.984375,554.699524 548.944885,554.028259 548.987061,552.907837 &#10;&#9;C549.629639,554.958069 550.243164,557.463318 550.651489,560.565186 &#10;&#9;C550.395752,561.747070 550.345154,562.332336 550.294556,562.917603 &#10;&#9;C548.086609,567.476318 544.768066,570.720215 539.347412,572.016479 &#10;&#9;C538.558594,572.130981 538.109436,572.106567 537.325806,572.130981 &#10;z"/>
      <path fill="#C07B80" opacity="1.000000" stroke="none" d="&#10;M758.996643,568.994751 &#10;&#9;C750.864624,573.429016 745.740234,573.082581 740.890076,567.391968 &#10;&#9;C744.747742,567.458801 748.758728,568.877991 752.317505,568.134033 &#10;&#9;C760.413147,566.441589 761.774536,559.550598 762.649292,552.277100 &#10;&#9;C763.274292,553.105103 763.630981,554.210571 764.081238,555.655273 &#10;&#9;C763.797180,558.375732 763.419495,560.756775 762.811646,563.633545 &#10;&#9;C762.332397,564.339783 762.224609,564.607239 762.258179,564.931641 &#10;&#9;C761.602295,565.781738 760.946472,566.631836 759.917480,567.846313 &#10;&#9;C759.258057,568.401245 759.072510,568.663147 758.987793,568.996460 &#10;&#9;C758.987793,568.996460 758.999084,569.000000 758.996643,568.994751 &#10;z"/>
      <path fill="#C07B80" opacity="1.000000" stroke="none" d="&#10;M703.919128,487.834442 &#10;&#9;C700.113892,497.531677 696.025879,506.927277 692.172913,516.418335 &#10;&#9;C691.418640,518.276428 691.574951,520.504089 691.590820,522.818237 &#10;&#9;C691.331055,524.392029 691.133728,526.370239 690.170959,526.868103 &#10;&#9;C688.784912,527.584778 686.724915,527.604248 685.197083,527.131409 &#10;&#9;C684.615356,526.951355 684.105469,524.307373 684.588989,523.260071 &#10;&#9;C689.706726,512.173828 694.979675,501.157623 700.376648,490.204346 &#10;&#9;C700.942871,489.055054 702.578857,488.432861 703.919128,487.834442 &#10;z"/>
      <path fill="#C07B80" opacity="1.000000" stroke="none" d="&#10;M489.927612,487.777954 &#10;&#9;C486.531891,496.388031 482.817078,504.677368 479.367798,513.075806 &#10;&#9;C478.198975,515.921570 477.701080,519.042847 477.010132,522.421814 &#10;&#9;C477.040161,523.464600 477.021912,524.140076 476.861938,524.780212 &#10;&#9;C476.151093,527.624634 474.027771,528.954529 471.748047,527.401672 &#10;&#9;C470.641937,526.648254 470.121185,523.378479 470.797119,521.930054 &#10;&#9;C475.815979,511.175446 481.155396,500.568420 486.543701,489.991272 &#10;&#9;C487.097229,488.904724 488.632599,488.318390 489.927612,487.777954 &#10;z"/>
    </g>
  </g>
</svg>